<svg xmlns="http://www.w3.org/2000/svg" viewBox="0 0 311.44 232.2"><defs><style>.cls-1{fill:none;}</style></defs><title>Layer 2 (2)</title><g id="Layer_2" data-name="Layer 2"><g id="Layer_2-2" data-name="Layer 2"><path d="M304.88,82.59c-15.05-29-55.78-25.68-63-18.59,2.54-24.84-25.42-55.1-53.57-62.36C146.34-9.18,123.86,37,60.82,44.57,102.61,52,151.42,21.47,170.55,21,208.45,20.15,230.13,42.84,232,69c-7.53,12.52-8.37,18.63-8.37,18.63s29-31.22,60-13.43c18.13,10.38,33.34,53.49-13.31,79.6-17.43,9.76-50.19-1.53-60.08-11.66,19.52-10.4,19.52-26.18,19.52-26.18s-21.8,29.85-48,17.05c20.66-15,19.9-39.93,18-53.49-4.82,26.24-16.86,51.34-45.26,48.55,5.2-8.49,4.44-22.06,2.92-27-.63,28.89-26.49,31.69-69.59,21-18.88-4.66-27-33.59-29.16-36C56.21,97.34,70.16,125,77.51,127.64c-8.37,12.42-30.68,15.83-50.07-2.8C16,113.85-8.74,64.22,41.64,39.66c23.57-11.5,59.15-3.81,81.88-28.64C97,27.88,60.93,25.78,43.07,30.2,10,38.4-20.76,94.15,18.31,133c25,24.85,52.57,24.33,57.81,22.89,3.93-21.76,28.13-26.15,76.31-21.63,29.66,2.8,57.7,27.53,59.07,41.84.76,8-1,21.16-2,25.22C190.33,186.45,124.79,174,107.93,175c30.15,5.21,74.15,20.43,96.28,35.65,5.86,4,10.18,8,12.3,11.88a10.89,10.89,0,0,1,1.45,4.32c.18.18.47-1.36.81-4.07v-.13s0-.08,0-.12l0-.25c0-.09,0-.16,0-.26l0-.31c0-.22.05-.47.08-.75s0-.28,0-.43,0-.31.05-.48.07-.64.1-1l.06-.53c0-.41.08-.84.13-1.27l.12-1.16c0-.23.05-.46.07-.67,0-.36.07-.7.11-1.05s.07-.68.1-1c0-.13,0-.27,0-.4s0-.26,0-.4v-.09c0-.3.06-.56.09-.81v-.06c0-.23,0-.43.07-.62v0c0-.15,0-.28,0-.4l0-.26,0-.21v0l0-.39a1.5,1.5,0,0,0,0-.2c1.74-18.72,3.77-45.86,3.77-45.86,26.2,8.7,38.27,6.5,46.48,4.47C292.37,162.71,325.66,122.65,304.88,82.59Z"/><path d="M215.42,230.06c-5.22.63-8.89,1.65-17,.77-29.93-3.27-79.76-23.31-94.83-20.68-9.21,1.61-19.35,11.87-22.27,22a.31.31,0,0,0-.1,0l-.07-.05A30.64,30.64,0,0,1,75,227.78c-9.32-8.67-10.48-16.09-6.64-21.74h0l8.38-36.31s1.23,19.32,5,27.62c12.84-4.19,31.41-4,46.71,2.17,13.76,5.56,33.09,15.41,56.12,22.89,5.52,1.8,11.25,3.44,17.17,4.88C206.2,228.34,210.77,229.28,215.42,230.06Z"/><path class="cls-1" d="M155.61,116l.07,0,.1,0,0,0"/><path d="M155.62,117.05l.2-1.9C155.75,115.85,155.68,116.5,155.62,117.05Z"/><path d="M155.28,120.34l.88-8.49C156,113.81,155.58,117.52,155.28,120.34Z"/><path d="M155.76,115.64c0,.23,0,.54-.09.91Z"/></g></g></svg>